{
	"asset":{
		"version":"2.0",
		"generator":"Maxon Cinema 4D 2025.1.3 (#200000219)"
	},
	"scenes":[{
		"nodes":[0]
	}],
	"nodes":[{
		"name":"rsg_home",
		"mesh":0
	}],
	"meshes":[{
		"name":"rsg_home",
		"primitives":[{
			"attributes":{
				"POSITION":1,
				"NORMAL":2,
				"TEXCOORD_0":3
			},
			"indices":0
		}]
	}],
	"accessors":[{
		"bufferView":0,
		"type":"SCALAR",
		"componentType":5123,
		"count":46962,
		"byteOffset":0,
		"min":[0],
		"max":[46961]
	},
	{
		"bufferView":1,
		"type":"VEC3",
		"componentType":5126,
		"count":46962,
		"byteOffset":0,
		"min":[-22.38155174255371,
		-20.22883415222168,
		-22.614646911621095],
		"max":[20.629606246948243,
		39.028385162353519,
		19.871652603149415]
	},
	{
		"bufferView":1,
		"type":"VEC3",
		"componentType":5126,
		"count":46962,
		"byteOffset":12,
		"min":[-1.0,
		-1.0,
		-1.0],
		"max":[1.0,
		1.0,
		1.0]
	},
	{
		"bufferView":1,
		"type":"VEC2",
		"componentType":5126,
		"count":46962,
		"byteOffset":24,
		"min":[0.0017556027742102743,
		0.0017556026577949525],
		"max":[0.9950248599052429,
		0.9940153360366821]
	}],
	"bufferViews":[{
		"buffer":0,
		"byteOffset":0,
		"byteLength":93924,
		"target":34963
	},
	{
		"buffer":0,
		"byteOffset":93924,
		"byteLength":1502784,
		"target":34962,
		"byteStride":32
	}],
	"buffers":[{
		"uri":"data:application/octet-stream;base64,",
		"byteLength":1596708
	}]
}